<svg xmlns="http://www.w3.org/2000/svg">

<symbol id="icon-close" viewBox="0 0 8 8">
<path d="M7.2 0.8L4 4l3.2 3.2-.8.8L3.2 4.8 0 8 0 6.4 2.4 4 0 1.6V0l3.2 3.2L6.4 0z"/>
</symbol>


<symbol id="icon-person" viewBox="0 0 24 24">
<path d="M12 12a5 5 0 1 0 0-10 5 5 0 0 0 0 10zm0 2c-5 0-9 2.5-9 6v2h18v-2c0-3.5-4-6-9-6z"/>
</symbol>


<symbol id="icon-phone" viewBox="0 0 24 24">
<path d="M6.6 10.8c1.6 3.1 3.5 5 6.6 6.6l2.2-2.2c.3-.3.7-.4 1.1-.2 1.2.4 2.5.6 3.8.6.6 0 1 .4 1 1V20c0 .6-.4 1-1 1C10.7 21 3 13.3 3 3c0-.6.4-1 1-1h3.4c.6 0 1 .4 1 1 0 1.3.2 2.6.6 3.8.1.4 0 .8-.3 1.1l-2.1 2.9z"/>
</symbol>


<symbol id="icon-email" viewBox="0 0 24 24">
<path d="M20 4H4c-1.1 0-2 .9-2 2v12c0 1.1.9 2 2 2h16c1.1 0 2-.9 2-2V6c0-1.1-.9-2-2-2zm0 4-8 5-8-5V6l8 5 8-5v2z"/>
</symbol>


<symbol id="icon-check" viewBox="0 0 12 10">
<path d="M10.2 0 4.5 5.7 1.8 3 0 4.8 4.5 9.3 12 1.8z"/>
</symbol>


<symbol id="icon-send" viewBox="0 0 24 24">
<path d="M2 21l21-9L2 3v7l15 2-15 2v7z"/>
</symbol>


<symbol id="icon-antenna" viewBox="0 0 64 64">
<path d="M32 2a2 2 0 0 0-2 2v10h4V4a2 2 0 0 0-2-2zM20 18h24v4H20zM14 28h36v6H14zM8 42h48v8H8z"/>
</symbol>


<symbol id="icon-clock" viewBox="0 0 64 64">
<path d="M32 4a28 28 0 1 0 28 28A28 28 0 0 0 32 4zm2 30H18v-4h12V16h4z"/>
</symbol>


<symbol id="icon-diagram" viewBox="0 0 64 64">
<path d="M8 52h8V28H8zm20 0h8V12h-8zm20 0h8V20h-8z"/>
</symbol>


<symbol id="icon-astronaut" viewBox="0 0 64 64">
<path d="M32 4a12 12 0 1 0 12 12A12 12 0 0 0 32 4zm-18 44c0-10 8-16 18-16s18 6 18 16v4H14z"/>
</symbol>


<symbol id="icon-instagram" viewBox="0 0 24 24">
<path d="M7 2h10a5 5 0 0 1 5 5v10a5 5 0 0 1-5 5H7a5 5 0 0 1-5-5V7a5 5 0 0 1 5-5zm5 5a5 5 0 1 0 0 10 5 5 0 0 0 0-10z"/>
</symbol>


<symbol id="icon-twitter" viewBox="0 0 24 24">
<path d="M22 5.9c-.7.3-1.5.5-2.3.6.8-.5 1.4-1.3 1.7-2.2-.8.5-1.7.8-2.6 1A4 4 0 0 0 12 8.9c0 .3 0 .6.1.9A11.4 11.4 0 0 1 3.7 4.6a4 4 0 0 0 1.2 5.4c-.7 0-1.3-.2-1.9-.5 0 1.9 1.4 3.6 3.3 4-.4.1-.8.2-1.2.2-.3 0-.6 0-.8-.1.6 1.6 2.2 2.8 4 2.8A8.1 8.1 0 0 1 2 18.1 11.5 11.5 0 0 0 8.2 20c7.4 0 11.5-6.1 11.5-11.5v-.5c.8-.6 1.5-1.3 2.3-2.1z"/>
</symbol>


<symbol id="icon-facebook" viewBox="0 0 24 24">
<path d="M14 8h3V4h-3c-3 0-5 2-5 5v3H6v4h3v8h4v-8h3l1-4h-4V9c0-.6.4-1 1-1z"/>
</symbol>


<symbol id="icon-linkedin" viewBox="0 0 24 24">
<path d="M6 8H2v14h4V8zm-2-6a2 2 0 1 0 0 4 2 2 0 0 0 0-4zm18 14c0-4-2-6-5-6-2 0-3 1-4 2V8H9v14h4v-7c0-2 1-3 2-3s2 1 2 3v7h5v-6z"/>
</symbol>

</svg>