<svg xmlns="http://www.w3.org/2000/svg">

<symbol id="icon-close" viewBox="0 0 24 24">
<path d="M18.3 5.71L12 12l6.3 6.29-1.41 1.42L10.59 13.41 4.29 19.71 2.88 18.3 9.17 12 2.88 5.71 4.29 4.29l6.3 6.3 6.29-6.3z"/>
</symbol>


<symbol id="icon-person" viewBox="0 0 24 24">
<path d="M12 12c2.76 0 5-2.24 5-5s-2.24-5-5-5-5 2.24-5 5 2.24 5 5 5zm0 2c-3.33 0-10 1.67-10 5v2h20v-2c0-3.33-6.67-5-10-5z"/>
</symbol>


<symbol id="icon-phone" viewBox="0 0 24 24">
<path d="M6.62 10.79a15.05 15.05 0 006.59 6.59l2.2-2.2c.27-.27.67-.36 1.02-.24 1.12.37 2.33.57 3.57.57.55 0 1 .45 1 1V20c0 .55-.45 1-1 1C10.61 21 3 13.39 3 4c0-.55.45-1 1-1h3.5c.55 0 1 .45 1 1 0 1.25.2 2.45.57 3.57.11.35.03.74-.25 1.02l-2.2 2.2z"/>
</symbol>


<symbol id="icon-email" viewBox="0 0 24 24">
<path d="M20 4H4c-1.1 0-2 .9-2 2v12c0 1.1.9 2 2 2h16c1.1 0 2-.9 2-2V6c0-1.1-.9-2-2-2zm0 4-8 5-8-5V6l8 5 8-5v2z"/>
</symbol>


<symbol id="icon-instagram" viewBox="0 0 24 24">
<path d="M7 2h10c2.76 0 5 2.24 5 5v10c0 2.76-2.24 5-5 5H7c-2.76 0-5-2.24-5-5V7c0-2.76 2.24-5 5-5zm5 5a5 5 0 100 10 5 5 0 000-10zm6.5-.5a1.5 1.5 0 10.001 3.001A1.5 1.5 0 0018.5 6.5z"/>
</symbol>


<symbol id="icon-twitter" viewBox="0 0 24 24">
<path d="M22 5.8c-.7.3-1.5.5-2.3.6.8-.5 1.5-1.3 1.8-2.2-.8.5-1.7.8-2.6 1C18.2 4.3 17 4 15.8 4c-2.3 0-4.2 1.9-4.2 4.2 0 .3 0 .6.1 1C8.3 9 5.1 7.3 3 4.7c-.4.7-.6 1.4-.6 2.2 0 1.5.8 2.8 2 3.6-.6 0-1.3-.2-1.8-.5v.1c0 2 1.4 3.7 3.3 4.1-.3.1-.7.1-1.1.1-.3 0-.5 0-.8-.1.5 1.7 2.1 2.9 4 3-1.5 1.2-3.4 1.9-5.4 1.9-.3 0-.7 0-1-.1C3.5 20.2 5.8 21 8.3 21c7.5 0 11.6-6.2 11.6-11.6v-.5c.8-.6 1.5-1.3 2.1-2.1z"/>
</symbol>


<symbol id="icon-facebook" viewBox="0 0 24 24">
<path d="M13 22v-8h3l1-4h-4V8c0-1 .3-2 2-2h2V2.2c-.4-.1-1.7-.2-3.2-.2-3.2 0-5.3 2-5.3 5.5V10H5v4h3v8h5z"/>
</symbol>


<symbol id="icon-linkedin" viewBox="0 0 24 24">
<path d="M6 8H2V22h4V8zM4 2C2.9 2 2 2.9 2 4s.9 2 2 2 2-.9 2-2-.9-2-2-2zm18 20h-4v-7c0-1.7 0-4-2.5-4S12 13 12 15v7H8V8h4v2c.5-1 1.8-2.2 3.8-2.2 4 0 4.2 2.6 4.2 6v8z"/>
</symbol>

</svg>