<svg xmlns="http://www.w3.org/2000/svg" style="display:none;">

  <symbol id="icon-antenna" viewBox="0 0 32 32">
    <path d="M16 2C9.4 2 4 7.4 4 14c0 4.7 2.7 8.7 6.7 10.7l1.3-2.6C9.3 20.7 7 17.6 7 14c0-5 4-9 9-9s9 4 9 9c0 3.6-2.3 6.7-5 8.1l1.3 2.6C25.3 22.7 28 18.7 28 14c0-6.6-5.4-12-12-12z"/>
  </symbol>

  <symbol id="icon-diagram" viewBox="0 0 32 32">
    <path d="M4 28h24v-2H4v2zm2-4h4V10H6v14zm8 0h4V4h-4v20zm8 0h4V16h-4v8z"/>
  </symbol>

  <symbol id="icon-astronaut" viewBox="0 0 32 32">
    <path d="M16 3a6 6 0 00-6 6v4a6 6 0 0012 0V9a6 6 0 00-6-6zm-8 18v6h16v-6l-4-2v2H12v-2l-4 2z"/>
  </symbol>

  <symbol id="icon-clock" viewBox="0 0 32 32">
    <path d="M16 2a14 14 0 1014 14A14 14 0 0016 2zm1 15h6v-2h-5V8h-2v9z"/>
  </symbol>

  <symbol id="icon-facebook" viewBox="0 0 32 32">
    <path d="M19 6h3V2h-3c-3.3 0-6 2.7-6 6v3H9v4h4v15h4V15h4l1-4h-5V8c0-1.1.9-2 2-2z"/>
  </symbol>

  <symbol id="icon-instagram" viewBox="0 0 32 32">
    <path d="M16 10a6 6 0 100 12 6 6 0 000-12zm0 10a4 4 0 110-8 4 4 0 010 8zm6-11a1 1 0 110 2 1 1 0 010-2zm4-3H6a4 4 0 00-4 4v14a4 4 0 004 4h20a4 4 0 004-4V10a4 4 0 00-4-4z"/>
  </symbol>

  <symbol id="icon-twitter" viewBox="0 0 32 32">
    <path d="M28 8a10 10 0 01-2.9.8A5 5 0 0027 6a10 10 0 01-3.2 1.2A5 5 0 0016 12a14 14 0 01-10-5 5 5 0 001.5 6.7A5 5 0 015 13v.1a5 5 0 004 5 5 5 0 01-2 .1 5 5 0 004.7 3.5A10 10 0 014 24a14 14 0 007.5 2c9 0 14-7.5 14-14v-.6A10 10 0 0028 8z"/>
  </symbol>

  <symbol id="icon-linkedin" viewBox="0 0 32 32">
    <path d="M6 12h4v14H6V12zm2-7a2 2 0 110 4 2 2 0 010-4zm6 7h4v2c.6-1.2 2-2 4-2 4 0 5 2.5 5 6v8h-4v-7c0-2-1-3-2.5-3S18 16 18 18v8h-4V12z"/>
  </symbol>

</svg>
